RobotoExtremo-opszmax-wghtmin-wdthmin1.ufo
<glyph name="exclam" format="2">
  <advance width="292"/>
  <unicode hex="0021"/>
  <outline>
    <contour>
      <point x="122" y="20" type="qcurve" smooth="yes"/>
      <point x="122" y="10"/>
      <point x="133" y="0"/>
      <point x="145" y="0" type="qcurve" smooth="yes"/>
      <point x="157" y="0"/>
      <point x="170" y="10"/>
      <point x="170" y="20" type="qcurve" smooth="yes"/>
      <point x="170" y="30"/>
      <point x="158" y="40"/>
      <point x="146" y="40" type="qcurve" smooth="yes"/>
      <point x="135" y="40"/>
      <point x="122" y="30"/>
    </contour>
    <contour>
      <point x="141" y="374" type="line"/>
      <point x="151" y="374" type="line"/>
      <point x="154" y="1456" type="line"/>
      <point x="138" y="1456" type="line"/>
    </contour>
  </outline>
</glyph>
<glyph name="period" format="2">
  <advance width="206"/>
  <unicode hex="002E"/>
  <outline>
    <contour>
      <point x="81" y="16" type="qcurve" smooth="yes"/>
      <point x="81" y="6"/>
      <point x="90" y="-7"/>
      <point x="102" y="-7" type="qcurve" smooth="yes"/>
      <point x="113" y="-7"/>
      <point x="125" y="5"/>
      <point x="125" y="15" type="qcurve" smooth="yes"/>
      <point x="125" y="26"/>
      <point x="115" y="38"/>
      <point x="104" y="38" type="qcurve" smooth="yes"/>
      <point x="93" y="38"/>
      <point x="81" y="26"/>
    </contour>
  </outline>
</glyph>
<glyph name="slash" format="2">
  <advance width="337"/>
  <unicode hex="002F"/>
  <outline>
    <contour>
      <point x="-74" y="-47" type="line"/>
      <point x="-63" y="-47" type="line"/>
      <point x="351" y="1456" type="line"/>
      <point x="339" y="1456" type="line"/>
    </contour>
  </outline>
</glyph>
<glyph name="zero" format="2">
  <advance width="568"/>
  <unicode hex="0030"/>
  <outline>
    <contour>
      <point x="84" y="224" type="line" smooth="yes"/>
      <point x="84" y="98"/>
      <point x="185" y="-20"/>
      <point x="284" y="-20" type="qcurve" smooth="yes"/>
      <point x="382" y="-20"/>
      <point x="484" y="98"/>
      <point x="484" y="224" type="qcurve" smooth="yes"/>
      <point x="484" y="1238" type="line" smooth="yes"/>
      <point x="484" y="1356"/>
      <point x="382" y="1476"/>
      <point x="284" y="1476" type="qcurve" smooth="yes"/>
      <point x="185" y="1476"/>
      <point x="84" y="1356"/>
      <point x="84" y="1238" type="qcurve" smooth="yes"/>
    </contour>
    <contour>
      <point x="83" y="249" type="qcurve" smooth="yes"/>
      <point x="83" y="1221" type="line" smooth="yes"/>
      <point x="83" y="1370"/>
      <point x="191" y="1467"/>
      <point x="284" y="1467" type="qcurve" smooth="yes"/>
      <point x="376" y="1467"/>
      <point x="486" y="1370"/>
      <point x="486" y="1221" type="qcurve" smooth="yes"/>
      <point x="486" y="249" type="line" smooth="yes"/>
      <point x="486" y="95"/>
      <point x="379" y="-10"/>
      <point x="284" y="-10" type="qcurve" smooth="yes"/>
      <point x="188" y="-10"/>
      <point x="83" y="93"/>
    </contour>
  </outline>
</glyph>
<glyph name="one" format="2">
  <advance width="116"/>
  <unicode hex="0031"/>
  <outline>
    <contour>
      <point x="117" y="0" type="line"/>
      <point x="113" y="0" type="line"/>
      <point x="113" y="1469" type="line"/>
      <point x="84" y="1469" type="line"/>
      <point x="-58" y="1375" type="line"/>
      <point x="-54" y="1364" type="line"/>
      <point x="117" y="1474" type="line"/>
    </contour>
  </outline>
</glyph>
<glyph name="question" format="2">
  <advance width="469"/>
  <unicode hex="003F"/>
  <outline>
    <contour>
      <point x="217" y="16" type="qcurve" smooth="yes"/>
      <point x="217" y="4"/>
      <point x="228" y="-10"/>
      <point x="242" y="-10" type="qcurve" smooth="yes"/>
      <point x="255" y="-10"/>
      <point x="269" y="4"/>
      <point x="269" y="16" type="qcurve" smooth="yes"/>
      <point x="269" y="27"/>
      <point x="256" y="41"/>
      <point x="243" y="41" type="qcurve" smooth="yes"/>
      <point x="231" y="41"/>
      <point x="217" y="27"/>
    </contour>
    <contour>
      <point x="8" y="1046" type="line"/>
      <point x="6" y="1048" type="line"/>
      <point x="6" y="1212" type="line" smooth="yes"/>
      <point x="6" y="1316"/>
      <point x="141" y="1458"/>
      <point x="253" y="1458" type="qcurve" smooth="yes"/>
      <point x="365" y="1458"/>
      <point x="479" y="1355"/>
      <point x="479" y="1204" type="qcurve" smooth="yes"/>
      <point x="479" y="1068"/>
      <point x="387" y="941"/>
      <point x="318" y="864" type="qcurve"/>
      <point x="242" y="768"/>
      <point x="234" y="600"/>
      <point x="234" y="485" type="qcurve" smooth="yes"/>
      <point x="234" y="335" type="line"/>
      <point x="235" y="335" type="line"/>
      <point x="235" y="485" type="line" smooth="yes"/>
      <point x="235" y="593"/>
      <point x="242" y="776"/>
      <point x="317" y="867" type="qcurve" smooth="yes"/>
      <point x="384" y="942"/>
      <point x="476" y="1077"/>
      <point x="476" y="1211" type="qcurve" smooth="yes"/>
      <point x="476" y="1373"/>
      <point x="367" y="1470"/>
      <point x="252" y="1470" type="qcurve" smooth="yes"/>
      <point x="141" y="1470"/>
      <point x="8" y="1331"/>
      <point x="8" y="1206" type="qcurve" smooth="yes"/>
    </contour>
  </outline>
</glyph>
<glyph name="A" format="2">
  <advance width="570"/>
  <unicode hex="0041"/>
  <outline>
    <contour>
      <point x="10" y="0" type="line"/>
      <point x="16" y="0" type="line"/>
      <point x="282" y="1440" type="line"/>
      <point x="284" y="1440" type="line"/>
      <point x="554" y="0" type="line"/>
      <point x="560" y="0" type="line"/>
      <point x="284" y="1473" type="line"/>
      <point x="281" y="1473" type="line"/>
    </contour>
    <contour>
      <point x="93" y="429" type="line"/>
      <point x="476" y="429" type="line"/>
      <point x="476" y="435" type="line"/>
      <point x="94" y="435" type="line"/>
    </contour>
  </outline>
</glyph>
<glyph name="J" format="2">
  <advance width="469"/>
  <unicode hex="004A"/>
  <outline>
    <contour>
      <point x="12" y="251" type="line" smooth="yes"/>
      <point x="12" y="110"/>
      <point x="108" y="-14"/>
      <point x="197" y="-14" type="qcurve" smooth="yes"/>
      <point x="283" y="-14"/>
      <point x="383" y="97"/>
      <point x="383" y="301" type="qcurve" smooth="yes"/>
      <point x="383" y="1456" type="line"/>
      <point x="383" y="1456" type="line"/>
      <point x="383" y="290" type="line" smooth="yes"/>
      <point x="383" y="103"/>
      <point x="290" y="-4"/>
      <point x="196" y="-4" type="qcurve" smooth="yes"/>
      <point x="108" y="-4"/>
      <point x="10" y="114"/>
      <point x="10" y="254" type="qcurve" smooth="yes"/>
      <point x="10" y="335" type="line"/>
      <point x="12" y="335" type="line"/>
    </contour>
  </outline>
</glyph>
<glyph name="K" format="2">
  <advance width="575"/>
  <unicode hex="004B"/>
  <outline>
    <contour>
      <point x="108" y="0" type="line"/>
      <point x="114" y="0" type="line"/>
      <point x="114" y="590" type="line"/>
      <point x="542" y="1463" type="line"/>
      <point x="548" y="1456" type="line"/>
      <point x="114" y="578" type="line"/>
      <point x="114" y="1456" type="line"/>
      <point x="108" y="1456" type="line"/>
    </contour>
    <contour>
      <point x="601" y="0" type="line"/>
      <point x="594" y="0" type="line"/>
      <point x="303" y="966" type="line"/>
      <point x="309" y="976" type="line"/>
    </contour>
  </outline>
</glyph>
<glyph name="L" format="2">
  <advance width="536"/>
  <unicode hex="004C"/>
  <outline>
    <contour>
      <point x="108" y="0" type="line"/>
      <point x="512" y="0" type="line"/>
      <point x="512" y="10" type="line"/>
      <point x="108" y="10" type="line"/>
      <point x="108" y="1456" type="line"/>
      <point x="108" y="1456" type="line"/>
    </contour>
  </outline>
</glyph>
<glyph name="M" format="2">
  <advance width="747"/>
  <unicode hex="004D"/>
  <outline>
    <contour>
      <point x="108" y="0" type="line"/>
      <point x="111" y="0" type="line"/>
      <point x="111" y="1150" type="line" smooth="yes"/>
      <point x="111" y="1159"/>
      <point x="115" y="1187"/>
      <point x="116" y="1198" type="qcurve"/>
      <point x="110" y="1198" type="line"/>
      <point x="116" y="1190"/>
      <point x="131" y="1161"/>
      <point x="134" y="1147" type="qcurve" smooth="yes"/>
      <point x="361" y="0" type="line"/>
      <point x="372" y="0" type="line"/>
      <point x="618" y="1148" type="line"/>
      <point x="623" y="1166"/>
      <point x="637" y="1191"/>
      <point x="645" y="1203" type="qcurve"/>
      <point x="642" y="1203" type="line"/>
      <point x="645" y="1187"/>
      <point x="646" y="1167"/>
      <point x="646" y="1151" type="qcurve" smooth="yes"/>
      <point x="646" y="0" type="line"/>
      <point x="639" y="0" type="line"/>
      <point x="639" y="1456" type="line"/>
      <point x="653" y="1456" type="line"/>
      <point x="371" y="100" type="line" smooth="yes"/>
      <point x="370" y="95"/>
      <point x="370" y="105"/>
      <point x="361" y="101" type="qcurve"/>
      <point x="361" y="101" type="line"/>
      <point x="354" y="106"/>
      <point x="356" y="95"/>
      <point x="355" y="100" type="qcurve" smooth="yes"/>
      <point x="84" y="1456" type="line"/>
      <point x="108" y="1456" type="line"/>
    </contour>
  </outline>
</glyph>
<glyph name="N" format="2">
  <advance width="626"/>
  <unicode hex="004E"/>
  <outline>
    <contour>
      <point x="108" y="0" type="line"/>
      <point x="111" y="0" type="line"/>
      <point x="111" y="1310" type="line"/>
      <point x="111" y="1302"/>
      <point x="112" y="1251"/>
      <point x="114" y="1245" type="qcurve"/>
      <point x="112" y="1245" type="line"/>
      <point x="112" y="1248"/>
      <point x="86" y="1288"/>
      <point x="80" y="1290" type="qcurve"/>
      <point x="559" y="0" type="line"/>
      <point x="518" y="0" type="line"/>
      <point x="518" y="1456" type="line"/>
      <point x="515" y="1456" type="line"/>
      <point x="515" y="171" type="line"/>
      <point x="515" y="175"/>
      <point x="516" y="221"/>
      <point x="515" y="225" type="qcurve"/>
      <point x="517" y="225" type="line"/>
      <point x="519" y="224"/>
      <point x="539" y="192"/>
      <point x="547" y="190" type="qcurve"/>
      <point x="72" y="1456" type="line"/>
      <point x="108" y="1456" type="line"/>
    </contour>
  </outline>
</glyph>
<glyph name="P" format="2">
  <advance width="550"/>
  <unicode hex="0050"/>
  <outline>
    <contour>
      <point x="108" y="0" type="line"/>
      <point x="108" y="0" type="line"/>
      <point x="108" y="650" type="line"/>
      <point x="285" y="650" type="line" smooth="yes"/>
      <point x="415" y="650"/>
      <point x="530" y="848"/>
      <point x="530" y="1054" type="qcurve" smooth="yes"/>
      <point x="530" y="1260"/>
      <point x="428" y="1456"/>
      <point x="285" y="1456" type="qcurve" smooth="yes"/>
      <point x="108" y="1456" type="line"/>
    </contour>
    <contour>
      <point x="108" y="660" type="line"/>
      <point x="108" y="1446" type="line"/>
      <point x="275" y="1446" type="line" smooth="yes"/>
      <point x="391" y="1446"/>
      <point x="530" y="1273"/>
      <point x="530" y="1053" type="qcurve" smooth="yes"/>
      <point x="530" y="834"/>
      <point x="401" y="660"/>
      <point x="273" y="660" type="qcurve" smooth="yes"/>
    </contour>
  </outline>
</glyph>
<glyph name="Q" format="2">
  <advance width="633"/>
  <unicode hex="0051"/>
  <outline>
    <contour>
      <point x="74" y="341" type="line" smooth="yes"/>
      <point x="74" y="127"/>
      <point x="187" y="-11"/>
      <point x="311" y="-11" type="qcurve" smooth="yes"/>
      <point x="436" y="-11"/>
      <point x="558" y="127"/>
      <point x="558" y="341" type="qcurve" smooth="yes"/>
      <point x="558" y="1134" type="line" smooth="yes"/>
      <point x="558" y="1318"/>
      <point x="436" y="1470"/>
      <point x="311" y="1470" type="qcurve" smooth="yes"/>
      <point x="186" y="1470"/>
      <point x="74" y="1318"/>
      <point x="74" y="1134" type="qcurve" smooth="yes"/>
    </contour>
    <contour>
      <point x="74" y="326" type="qcurve" smooth="yes"/>
      <point x="74" y="1145" type="line" smooth="yes"/>
      <point x="74" y="1312"/>
      <point x="188" y="1461"/>
      <point x="311" y="1461" type="qcurve" smooth="yes"/>
      <point x="437" y="1461"/>
      <point x="559" y="1312"/>
      <point x="559" y="1145" type="qcurve" smooth="yes"/>
      <point x="559" y="328" type="line" smooth="yes"/>
      <point x="559" y="129"/>
      <point x="438" y="-5"/>
      <point x="310" y="-5" type="qcurve" smooth="yes"/>
      <point x="188" y="-5"/>
      <point x="74" y="130"/>
    </contour>
    <contour>
      <point x="567" y="-113" type="line"/>
      <point x="573" y="-113" type="line"/>
      <point x="289" y="175" type="line"/>
      <point x="287" y="175" type="line"/>
    </contour>
  </outline>
</glyph>
<glyph name="R" format="2">
  <advance width="630"/>
  <unicode hex="0052"/>
  <outline>
    <contour>
      <point x="108" y="0" type="line"/>
      <point x="108" y="0" type="line"/>
      <point x="108" y="669" type="line"/>
      <point x="259" y="669" type="line" smooth="yes"/>
      <point x="404" y="669"/>
      <point x="553" y="835"/>
      <point x="553" y="1065" type="qcurve" smooth="yes"/>
      <point x="553" y="1286"/>
      <point x="448" y="1456"/>
      <point x="339" y="1456" type="qcurve" smooth="yes"/>
      <point x="108" y="1456" type="line"/>
    </contour>
    <contour>
      <point x="108" y="679" type="line"/>
      <point x="108" y="1446" type="line"/>
      <point x="291" y="1446" type="line" smooth="yes"/>
      <point x="423" y="1446"/>
      <point x="550" y="1259"/>
      <point x="550" y="1065" type="qcurve" smooth="yes"/>
      <point x="550" y="869"/>
      <point x="410" y="681"/>
      <point x="288" y="680" type="qcurve" smooth="yes"/>
    </contour>
    <contour>
      <point x="662" y="0" type="line"/>
      <point x="650" y="0" type="line"/>
      <point x="399" y="680" type="line"/>
      <point x="405" y="680" type="line"/>
    </contour>
  </outline>
</glyph>
<glyph name="S" format="2">
  <advance width="423"/>
  <unicode hex="0053"/>
  <outline>
    <contour>
      <point x="-20" y="253" type="line" smooth="yes"/>
      <point x="-20" y="130"/>
      <point x="105" y="-14"/>
      <point x="208" y="-14" type="qcurve" smooth="yes"/>
      <point x="310" y="-14"/>
      <point x="433" y="132"/>
      <point x="433" y="319" type="qcurve" smooth="yes"/>
      <point x="433" y="531"/>
      <point x="364" y="683"/>
      <point x="208" y="804" type="qcurve" smooth="yes"/>
      <point x="78" y="903"/>
      <point x="-10" y="1036"/>
      <point x="-10" y="1212" type="qcurve" smooth="yes"/>
      <point x="-10" y="1371"/>
      <point x="101" y="1458"/>
      <point x="210" y="1458" type="qcurve" smooth="yes"/>
      <point x="333" y="1458"/>
      <point x="419" y="1342"/>
      <point x="419" y="1245" type="qcurve" smooth="yes"/>
      <point x="419" y="1022" type="line"/>
      <point x="417" y="1022" type="line"/>
      <point x="417" y="1258" type="line" smooth="yes"/>
      <point x="417" y="1329"/>
      <point x="343" y="1470"/>
      <point x="212" y="1470" type="qcurve" smooth="yes"/>
      <point x="106" y="1470"/>
      <point x="-14" y="1370"/>
      <point x="-14" y="1211" type="qcurve" smooth="yes"/>
      <point x="-14" y="1041"/>
      <point x="52" y="922"/>
      <point x="206" y="798" type="qcurve" smooth="yes"/>
      <point x="345" y="690"/>
      <point x="431" y="537"/>
      <point x="431" y="322" type="qcurve" smooth="yes"/>
      <point x="431" y="132"/>
      <point x="307" y="-2"/>
      <point x="208" y="-2" type="qcurve" smooth="yes"/>
      <point x="105" y="-2"/>
      <point x="-22" y="134"/>
      <point x="-22" y="275" type="qcurve" smooth="yes"/>
      <point x="-22" y="458" type="line"/>
      <point x="-20" y="458" type="line"/>
    </contour>
  </outline>
</glyph>
<glyph name="T" format="2">
  <advance width="474"/>
  <unicode hex="0054"/>
  <outline>
    <contour>
      <point x="2" y="1446" type="line"/>
      <point x="238" y="1446" type="line"/>
      <point x="238" y="0" type="line"/>
      <point x="238" y="0" type="line"/>
      <point x="238" y="1446" type="line"/>
      <point x="472" y="1446" type="line"/>
      <point x="472" y="1456" type="line"/>
      <point x="2" y="1456" type="line"/>
    </contour>
  </outline>
</glyph>
<glyph name="U" format="2">
  <advance width="624"/>
  <unicode hex="0055"/>
  <outline>
    <contour>
      <point x="90" y="261" type="line" smooth="yes"/>
      <point x="90" y="108"/>
      <point x="208" y="-14"/>
      <point x="312" y="-14" type="qcurve" smooth="yes"/>
      <point x="420" y="-14"/>
      <point x="534" y="108"/>
      <point x="534" y="260" type="qcurve" smooth="yes"/>
      <point x="534" y="1456" type="line"/>
      <point x="538" y="1456" type="line"/>
      <point x="538" y="252" type="line" smooth="yes"/>
      <point x="538" y="96"/>
      <point x="432" y="-5"/>
      <point x="316" y="-5" type="qcurve" smooth="yes"/>
      <point x="203" y="-5"/>
      <point x="90" y="96"/>
      <point x="90" y="252" type="qcurve" smooth="yes"/>
      <point x="90" y="1456" type="line"/>
      <point x="90" y="1456" type="line"/>
    </contour>
  </outline>
</glyph>
<glyph name="V" format="2">
  <advance width="508"/>
  <unicode hex="0056"/>
  <outline>
    <contour>
      <point x="20" y="1456" type="line"/>
      <point x="277" y="-9" type="line"/>
      <point x="239" y="-9" type="line"/>
      <point x="488" y="1456" type="line"/>
      <point x="486" y="1456" type="line"/>
      <point x="295" y="527" type="line"/>
      <point x="281" y="430"/>
      <point x="253" y="233"/>
      <point x="253" y="181" type="qcurve"/>
      <point x="251" y="181" type="line"/>
      <point x="245" y="238"/>
      <point x="220" y="438"/>
      <point x="209" y="527" type="qcurve"/>
      <point x="14" y="1456" type="line"/>
    </contour>
  </outline>
</glyph>
<glyph name="W" format="2">
  <advance width="901"/>
  <unicode hex="0057"/>
  <outline>
    <contour>
      <point x="300" y="-8" type="line"/>
      <point x="268" y="-8" type="line"/>
      <point x="432" y="1191" type="line" smooth="yes"/>
      <point x="436" y="1224"/>
      <point x="447" y="1303"/>
      <point x="450" y="1340" type="qcurve"/>
      <point x="451" y="1340" type="line"/>
      <point x="453" y="1303"/>
      <point x="467" y="1223"/>
      <point x="470" y="1191" type="qcurve" smooth="yes"/>
      <point x="622" y="-9" type="line"/>
      <point x="588" y="-9" type="line"/>
      <point x="791" y="1456" type="line"/>
      <point x="777" y="1456" type="line"/>
      <point x="641" y="422" type="line" smooth="yes"/>
      <point x="637" y="393"/>
      <point x="600" y="220"/>
      <point x="594" y="180" type="qcurve"/>
      <point x="593" y="180" type="line"/>
      <point x="588" y="220"/>
      <point x="554" y="391"/>
      <point x="550" y="420" type="qcurve" smooth="yes"/>
      <point x="426" y="1456" type="line"/>
      <point x="454" y="1456" type="line"/>
      <point x="323" y="422" type="line" smooth="yes"/>
      <point x="319" y="391"/>
      <point x="281" y="219"/>
      <point x="275" y="178" type="qcurve"/>
      <point x="275" y="178" type="line"/>
      <point x="269" y="215"/>
      <point x="231" y="391"/>
      <point x="227" y="422" type="qcurve" smooth="yes"/>
      <point x="87" y="1456" type="line"/>
      <point x="90" y="1456" type="line"/>
    </contour>
  </outline>
</glyph>
<glyph name="X" format="2">
  <advance width="419"/>
  <unicode hex="0058"/>
  <outline>
    <contour>
      <point x="10" y="0" type="line"/>
      <point x="4" y="0" type="line"/>
      <point x="206" y="714" type="line"/>
      <point x="214" y="758" type="line"/>
      <point x="394" y="1456" type="line"/>
      <point x="400" y="1456" type="line"/>
      <point x="220" y="836" type="line"/>
      <point x="216" y="805" type="line"/>
    </contour>
    <contour>
      <point x="34" y="1456" type="line"/>
      <point x="214" y="753" type="line"/>
      <point x="224" y="715" type="line"/>
      <point x="424" y="0" type="line"/>
      <point x="409" y="0" type="line"/>
      <point x="208" y="793" type="line"/>
      <point x="199" y="827" type="line"/>
      <point x="19" y="1456" type="line"/>
    </contour>
  </outline>
</glyph>
<glyph name="Y" format="2">
  <advance width="386"/>
  <unicode hex="0059"/>
  <outline>
    <contour>
      <point x="198" y="0" type="line"/>
      <point x="198" y="0" type="line"/>
      <point x="198" y="597" type="line"/>
      <point x="373" y="1456" type="line"/>
      <point x="383" y="1456" type="line"/>
      <point x="222" y="791" type="line" smooth="yes"/>
      <point x="216" y="760"/>
      <point x="197" y="693"/>
      <point x="190" y="651" type="qcurve"/>
      <point x="192" y="651" type="line"/>
      <point x="184" y="691"/>
      <point x="167" y="759"/>
      <point x="161" y="792" type="qcurve"/>
      <point x="1" y="1456" type="line"/>
      <point x="13" y="1456" type="line"/>
      <point x="198" y="597" type="line"/>
    </contour>
  </outline>
</glyph>
<glyph name="Z" format="2">
  <advance width="440"/>
  <unicode hex="005A"/>
  <outline>
    <contour>
      <point x="6" y="0" type="line"/>
      <point x="434" y="0" type="line"/>
      <point x="434" y="10" type="line"/>
      <point x="-25" y="10" type="line"/>
      <point x="410" y="1447" type="line"/>
      <point x="410" y="1456" type="line"/>
      <point x="-1" y="1456" type="line"/>
      <point x="-1" y="1446" type="line"/>
      <point x="428" y="1446" type="line"/>
      <point x="6" y="14" type="line"/>
    </contour>
  </outline>
</glyph>
<glyph name="a" format="2">
  <advance width="502"/>
  <unicode hex="0061"/>
  <outline>
    <contour>
      <point x="9" y="246" type="qcurve" smooth="yes"/>
      <point x="9" y="113"/>
      <point x="114" y="-13"/>
      <point x="188" y="-13" type="qcurve" smooth="yes"/>
      <point x="260" y="-13"/>
      <point x="407" y="68"/>
      <point x="428" y="141" type="qcurve"/>
      <point x="429" y="96"/>
      <point x="444" y="27"/>
      <point x="459" y="0" type="qcurve"/>
      <point x="463" y="0" type="line"/>
      <point x="463" y="3" type="line"/>
      <point x="449" y="19"/>
      <point x="427" y="97"/>
      <point x="427" y="155" type="qcurve" smooth="yes"/>
      <point x="427" y="731" type="line" smooth="yes"/>
      <point x="427" y="824"/>
      <point x="340" y="929"/>
      <point x="239" y="929" type="qcurve" smooth="yes"/>
      <point x="143" y="929"/>
      <point x="42" y="834"/>
      <point x="42" y="760" type="qcurve" smooth="yes"/>
      <point x="42" y="649" type="line"/>
      <point x="39" y="649" type="line"/>
      <point x="39" y="745" type="line" smooth="yes"/>
      <point x="39" y="814"/>
      <point x="141" y="918"/>
      <point x="237" y="918" type="qcurve" smooth="yes"/>
      <point x="333" y="918"/>
      <point x="430" y="819"/>
      <point x="430" y="700" type="qcurve" smooth="yes"/>
      <point x="430" y="521" type="line"/>
      <point x="230" y="521" type="line" smooth="yes"/>
      <point x="121" y="521"/>
      <point x="9" y="388"/>
    </contour>
    <contour>
      <point x="8" y="256" type="qcurve" smooth="yes"/>
      <point x="8" y="383"/>
      <point x="133" y="511"/>
      <point x="222" y="511" type="qcurve" smooth="yes"/>
      <point x="430" y="511" type="line"/>
      <point x="430" y="171" type="line" smooth="yes"/>
      <point x="430" y="86"/>
      <point x="291" y="-5"/>
      <point x="212" y="-5" type="qcurve" smooth="yes"/>
      <point x="126" y="-5"/>
      <point x="8" y="110"/>
    </contour>
  </outline>
</glyph>
<glyph name="b" format="2">
  <advance width="582"/>
  <unicode hex="0062"/>
  <outline>
    <contour>
      <point x="83" y="0" type="line"/>
      <point x="83" y="0" type="line"/>
      <point x="83" y="100" type="line"/>
      <point x="85" y="100" type="line"/>
      <point x="105" y="58"/>
      <point x="213" y="-15"/>
      <point x="300" y="-15" type="qcurve" smooth="yes"/>
      <point x="402" y="-15"/>
      <point x="522" y="110"/>
      <point x="522" y="256" type="qcurve" smooth="yes"/>
      <point x="522" y="668" type="line" smooth="yes"/>
      <point x="522" y="810"/>
      <point x="397" y="929"/>
      <point x="300" y="929" type="qcurve" smooth="yes"/>
      <point x="202" y="929"/>
      <point x="88" y="822"/>
      <point x="80" y="782" type="qcurve"/>
      <point x="80" y="1456" type="line"/>
      <point x="83" y="1456" type="line"/>
    </contour>
    <contour>
      <point x="80" y="92" type="qcurve"/>
      <point x="80" y="795" type="line"/>
      <point x="101" y="840"/>
      <point x="228" y="918"/>
      <point x="305" y="918" type="qcurve" smooth="yes"/>
      <point x="391" y="918"/>
      <point x="526" y="793"/>
      <point x="526" y="655" type="qcurve" smooth="yes"/>
      <point x="526" y="261" type="line" smooth="yes"/>
      <point x="526" y="106"/>
      <point x="389" y="-7"/>
      <point x="286" y="-7" type="qcurve" smooth="yes"/>
      <point x="214" y="-7"/>
      <point x="102" y="53"/>
    </contour>
  </outline>
</glyph>
<glyph name="c" format="2">
  <advance width="537"/>
  <unicode hex="0063"/>
  <outline>
    <contour>
      <point x="60" y="294" type="line" smooth="yes"/>
      <point x="60" y="135"/>
      <point x="168" y="-15"/>
      <point x="288" y="-15" type="qcurve" smooth="yes"/>
      <point x="381" y="-15"/>
      <point x="502" y="82"/>
      <point x="502" y="197" type="qcurve" smooth="yes"/>
      <point x="502" y="322" type="line"/>
      <point x="501" y="322" type="line"/>
      <point x="501" y="229" type="line" smooth="yes"/>
      <point x="501" y="110"/>
      <point x="395" y="-5"/>
      <point x="291" y="-5" type="qcurve" smooth="yes"/>
      <point x="184" y="-5"/>
      <point x="58" y="130"/>
      <point x="58" y="278" type="qcurve" smooth="yes"/>
      <point x="58" y="652" type="line" smooth="yes"/>
      <point x="58" y="771"/>
      <point x="167" y="920"/>
      <point x="283" y="920" type="qcurve" smooth="yes"/>
      <point x="387" y="920"/>
      <point x="500" y="795"/>
      <point x="499" y="695" type="qcurve"/>
      <point x="499" y="588" type="line"/>
      <point x="496" y="588" type="line"/>
      <point x="496" y="724" type="line" smooth="yes"/>
      <point x="496" y="813"/>
      <point x="387" y="929"/>
      <point x="284" y="929" type="qcurve" smooth="yes"/>
      <point x="172" y="929"/>
      <point x="60" y="783"/>
      <point x="60" y="641" type="qcurve" smooth="yes"/>
    </contour>
  </outline>
</glyph>
<glyph name="d" format="2">
  <advance width="580"/>
  <unicode hex="0064"/>
  <outline>
    <contour>
      <point x="60" y="271" type="line" smooth="yes"/>
      <point x="60" y="127"/>
      <point x="175" y="-5"/>
      <point x="273" y="-5" type="qcurve" smooth="yes"/>
      <point x="358" y="-5"/>
      <point x="475" y="60"/>
      <point x="495" y="103" type="qcurve"/>
      <point x="497" y="103" type="line"/>
      <point x="496" y="0" type="line"/>
      <point x="497" y="0" type="line"/>
      <point x="497" y="1456" type="line"/>
      <point x="504" y="1456" type="line"/>
      <point x="504" y="771" type="line"/>
      <point x="492" y="815"/>
      <point x="370" y="928"/>
      <point x="274" y="928" type="qcurve" smooth="yes"/>
      <point x="174" y="928"/>
      <point x="60" y="820"/>
      <point x="60" y="678" type="qcurve" smooth="yes"/>
    </contour>
    <contour>
      <point x="57" y="271" type="qcurve" smooth="yes"/>
      <point x="57" y="665" type="line" smooth="yes"/>
      <point x="57" y="804"/>
      <point x="191" y="918"/>
      <point x="276" y="918" type="qcurve" smooth="yes"/>
      <point x="353" y="918"/>
      <point x="477" y="831"/>
      <point x="500" y="785" type="qcurve"/>
      <point x="500" y="102" type="line"/>
      <point x="474" y="62"/>
      <point x="367" y="3"/>
      <point x="283" y="3" type="qcurve" smooth="yes"/>
      <point x="192" y="3"/>
      <point x="57" y="126"/>
    </contour>
  </outline>
</glyph>
<glyph name="e" format="2">
  <advance width="530"/>
  <unicode hex="0065"/>
  <outline>
    <contour>
      <point x="60" y="296" type="line" smooth="yes"/>
      <point x="60" y="126"/>
      <point x="179" y="-15"/>
      <point x="284" y="-15" type="qcurve" smooth="yes"/>
      <point x="395" y="-15"/>
      <point x="506" y="114"/>
      <point x="512" y="184" type="qcurve"/>
      <point x="498" y="153" type="line"/>
      <point x="488" y="91"/>
      <point x="387" y="-5"/>
      <point x="285" y="-5" type="qcurve" smooth="yes"/>
      <point x="179" y="-5"/>
      <point x="61" y="131"/>
      <point x="61" y="289" type="qcurve" smooth="yes"/>
      <point x="61" y="647" type="line" smooth="yes"/>
      <point x="61" y="788"/>
      <point x="188" y="917"/>
      <point x="299" y="917" type="qcurve" smooth="yes"/>
      <point x="402" y="917"/>
      <point x="508" y="795"/>
      <point x="509" y="681" type="qcurve" smooth="yes"/>
      <point x="509" y="561" type="line"/>
      <point x="48" y="561" type="line"/>
      <point x="48" y="555" type="line"/>
      <point x="507" y="555" type="line"/>
      <point x="507" y="736" type="line" smooth="yes"/>
      <point x="507" y="820"/>
      <point x="409" y="929"/>
      <point x="299" y="929" type="qcurve" smooth="yes"/>
      <point x="184" y="929"/>
      <point x="60" y="779"/>
      <point x="60" y="643" type="qcurve" smooth="yes"/>
    </contour>
  </outline>
</glyph>
<glyph name="f" format="2">
  <advance width="206"/>
  <unicode hex="0066"/>
  <outline>
    <contour>
      <point x="103" y="0" type="line"/>
      <point x="100" y="0" type="line"/>
      <point x="100" y="908" type="line"/>
      <point x="100" y="911" type="line"/>
      <point x="100" y="1264" type="line" smooth="yes"/>
      <point x="100" y="1385"/>
      <point x="197" y="1469"/>
      <point x="271" y="1469" type="qcurve" smooth="yes"/>
      <point x="288" y="1469"/>
      <point x="316" y="1463"/>
      <point x="318" y="1459" type="qcurve"/>
      <point x="350" y="1463" type="line"/>
      <point x="351" y="1466"/>
      <point x="309" y="1478"/>
      <point x="278" y="1478" type="qcurve" smooth="yes"/>
      <point x="199" y="1478"/>
      <point x="103" y="1406"/>
      <point x="103" y="1290" type="qcurve" smooth="yes"/>
    </contour>
    <contour>
      <point x="27" y="904" type="line"/>
      <point x="260" y="904" type="line"/>
      <point x="260" y="914" type="line"/>
      <point x="99" y="914" type="line"/>
      <point x="96" y="914" type="line"/>
      <point x="27" y="914" type="line"/>
    </contour>
  </outline>
</glyph>
<glyph name="g" format="2">
  <advance width="580"/>
  <unicode hex="0067"/>
  <outline>
    <contour>
      <point x="105" y="-385" type="line"/>
      <point x="130" y="-397"/>
      <point x="194" y="-421"/>
      <point x="257" y="-421" type="qcurve" smooth="yes"/>
      <point x="373" y="-421"/>
      <point x="497" y="-282"/>
      <point x="497" y="-137" type="qcurve" smooth="yes"/>
      <point x="497" y="914" type="line"/>
      <point x="499" y="914" type="line"/>
      <point x="500" y="782" type="line"/>
      <point x="500" y="782" type="line"/>
      <point x="485" y="826"/>
      <point x="381" y="928"/>
      <point x="276" y="928" type="qcurve" smooth="yes"/>
      <point x="184" y="928"/>
      <point x="60" y="819"/>
      <point x="60" y="678" type="qcurve" smooth="yes"/>
      <point x="60" y="270" type="line" smooth="yes"/>
      <point x="60" y="120"/>
      <point x="180" y="-22"/>
      <point x="282" y="-22" type="qcurve" smooth="yes"/>
      <point x="372" y="-22"/>
      <point x="487" y="55"/>
      <point x="502" y="99" type="qcurve"/>
      <point x="502" y="-111" type="line" smooth="yes"/>
      <point x="502" y="-250"/>
      <point x="380" y="-411"/>
      <point x="261" y="-411" type="qcurve" smooth="yes"/>
      <point x="196" y="-411"/>
      <point x="91" y="-381"/>
      <point x="60" y="-353" type="qcurve"/>
    </contour>
    <contour>
      <point x="57" y="271" type="qcurve" smooth="yes"/>
      <point x="57" y="665" type="line" smooth="yes"/>
      <point x="57" y="803"/>
      <point x="190" y="918"/>
      <point x="277" y="918" type="qcurve" smooth="yes"/>
      <point x="354" y="918"/>
      <point x="477" y="840"/>
      <point x="500" y="797" type="qcurve"/>
      <point x="500" y="86" type="line"/>
      <point x="475" y="45"/>
      <point x="366" y="-16"/>
      <point x="281" y="-16" type="qcurve" smooth="yes"/>
      <point x="195" y="-16"/>
      <point x="57" y="114"/>
    </contour>
  </outline>
</glyph>
<glyph name="h" format="2">
  <advance width="571"/>
  <unicode hex="0068"/>
  <outline>
    <contour>
      <point x="83" y="0" type="line"/>
      <point x="80" y="0" type="line"/>
      <point x="80" y="803" type="line"/>
      <point x="106" y="848"/>
      <point x="227" y="919"/>
      <point x="314" y="919" type="qcurve" smooth="yes"/>
      <point x="404" y="919"/>
      <point x="507" y="841"/>
      <point x="507" y="757" type="qcurve" smooth="yes"/>
      <point x="507" y="0" type="line"/>
      <point x="504" y="0" type="line"/>
      <point x="504" y="744" type="line" smooth="yes"/>
      <point x="504" y="840"/>
      <point x="405" y="929"/>
      <point x="317" y="929" type="qcurve" smooth="yes"/>
      <point x="226" y="929"/>
      <point x="97" y="826"/>
      <point x="80" y="767" type="qcurve"/>
      <point x="80" y="1452" type="line"/>
      <point x="83" y="1452" type="line"/>
    </contour>
  </outline>
</glyph>
<glyph name="i" format="2">
  <advance width="156"/>
  <unicode hex="0069"/>
  <outline>
    <contour>
      <point x="79" y="0" type="line"/>
      <point x="76" y="0" type="line"/>
      <point x="76" y="914" type="line"/>
      <point x="79" y="914" type="line"/>
    </contour>
    <contour>
      <point x="63" y="1242" type="qcurve" smooth="yes"/>
      <point x="63" y="1234"/>
      <point x="69" y="1225"/>
      <point x="78" y="1225" type="qcurve" smooth="yes"/>
      <point x="87" y="1225"/>
      <point x="94" y="1234"/>
      <point x="94" y="1242" type="qcurve" smooth="yes"/>
      <point x="94" y="1249"/>
      <point x="88" y="1258"/>
      <point x="79" y="1258" type="qcurve" smooth="yes"/>
      <point x="70" y="1258"/>
      <point x="63" y="1249"/>
    </contour>
  </outline>
</glyph>
<glyph name="j" format="2">
  <advance width="195"/>
  <unicode hex="006A"/>
  <outline>
    <contour>
      <point x="-131" y="-418" type="line"/>
      <point x="-119" y="-423"/>
      <point x="-71" y="-437"/>
      <point x="-21" y="-437" type="qcurve" smooth="yes"/>
      <point x="37" y="-437"/>
      <point x="117" y="-355"/>
      <point x="117" y="-284" type="qcurve" smooth="yes"/>
      <point x="114" y="914" type="line"/>
      <point x="115" y="914" type="line"/>
      <point x="115" y="-268" type="line" smooth="yes"/>
      <point x="115" y="-350"/>
      <point x="37" y="-426"/>
      <point x="-23" y="-426" type="qcurve" smooth="yes"/>
      <point x="-71" y="-426"/>
      <point x="-117" y="-413"/>
      <point x="-131" y="-406" type="qcurve"/>
    </contour>
    <contour>
      <point x="101" y="1242" type="qcurve" smooth="yes"/>
      <point x="101" y="1234"/>
      <point x="107" y="1224"/>
      <point x="115" y="1224" type="qcurve" smooth="yes"/>
      <point x="124" y="1224"/>
      <point x="131" y="1234"/>
      <point x="131" y="1242" type="qcurve" smooth="yes"/>
      <point x="131" y="1249"/>
      <point x="125" y="1258"/>
      <point x="116" y="1258" type="qcurve" smooth="yes"/>
      <point x="108" y="1258"/>
      <point x="101" y="1250"/>
    </contour>
  </outline>
</glyph>
<glyph name="k" format="2">
  <advance width="530"/>
  <unicode hex="006B"/>
  <outline>
    <contour>
      <point x="83" y="0" type="line"/>
      <point x="80" y="0" type="line"/>
      <point x="80" y="339" type="line"/>
      <point x="492" y="914" type="line"/>
      <point x="523" y="914" type="line"/>
      <point x="80" y="342" type="line"/>
      <point x="80" y="1456" type="line"/>
      <point x="83" y="1456" type="line"/>
    </contour>
    <contour>
      <point x="540" y="0" type="line"/>
      <point x="519" y="0" type="line"/>
      <point x="293" y="642" type="line"/>
      <point x="305" y="614" type="line"/>
    </contour>
  </outline>
</glyph>
<glyph name="l" format="2">
  <advance width="173"/>
  <unicode hex="006C"/>
  <outline>
    <contour>
      <point x="88" y="0" type="line"/>
      <point x="85" y="0" type="line"/>
      <point x="85" y="1456" type="line"/>
      <point x="88" y="1456" type="line"/>
    </contour>
  </outline>
</glyph>
<glyph name="m" format="2">
  <advance width="858"/>
  <unicode hex="006D"/>
  <outline>
    <contour>
      <point x="83" y="0" type="line"/>
      <point x="80" y="0" type="line"/>
      <point x="80" y="794" type="line"/>
      <point x="104" y="858"/>
      <point x="197" y="926"/>
      <point x="279" y="926" type="qcurve" smooth="yes"/>
      <point x="342" y="926"/>
      <point x="439" y="848"/>
      <point x="439" y="796" type="qcurve" smooth="yes"/>
      <point x="439" y="0" type="line"/>
      <point x="435" y="0" type="line"/>
      <point x="435" y="794" type="line" smooth="yes"/>
      <point x="436" y="834"/>
      <point x="541" y="921"/>
      <point x="623" y="921" type="qcurve" smooth="yes"/>
      <point x="693" y="921"/>
      <point x="795" y="821"/>
      <point x="795" y="748" type="qcurve" smooth="yes"/>
      <point x="795" y="0" type="line"/>
      <point x="791" y="0" type="line"/>
      <point x="791" y="745" type="line" smooth="yes"/>
      <point x="791" y="833"/>
      <point x="697" y="929"/>
      <point x="615" y="929" type="qcurve" smooth="yes"/>
      <point x="522" y="929"/>
      <point x="429" y="821"/>
      <point x="436" y="787" type="qcurve"/>
      <point x="435" y="787" type="line"/>
      <point x="445" y="838"/>
      <point x="359" y="928"/>
      <point x="274" y="929" type="qcurve" smooth="yes"/>
      <point x="188" y="930"/>
      <point x="92" y="848"/>
      <point x="80" y="784" type="qcurve"/>
      <point x="80" y="784" type="line"/>
      <point x="80" y="914" type="line"/>
      <point x="83" y="914" type="line"/>
    </contour>
  </outline>
</glyph>
<glyph name="n" format="2">
  <advance width="571"/>
  <unicode hex="006E"/>
  <outline>
    <contour>
      <point x="83" y="0" type="line"/>
      <point x="80" y="0" type="line"/>
      <point x="80" y="803" type="line"/>
      <point x="106" y="848"/>
      <point x="227" y="921"/>
      <point x="314" y="921" type="qcurve" smooth="yes"/>
      <point x="403" y="921"/>
      <point x="506" y="840"/>
      <point x="506" y="757" type="qcurve" smooth="yes"/>
      <point x="506" y="0" type="line"/>
      <point x="504" y="0" type="line"/>
      <point x="504" y="744" type="line" smooth="yes"/>
      <point x="504" y="840"/>
      <point x="405" y="929"/>
      <point x="317" y="929" type="qcurve" smooth="yes"/>
      <point x="224" y="929"/>
      <point x="102" y="832"/>
      <point x="81" y="776" type="qcurve"/>
      <point x="81" y="776" type="line"/>
      <point x="81" y="914" type="line"/>
      <point x="83" y="914" type="line"/>
    </contour>
  </outline>
</glyph>
<glyph name="o" format="2">
  <advance width="585"/>
  <unicode hex="006F"/>
  <outline>
    <contour>
      <point x="60" y="297" type="line" smooth="yes"/>
      <point x="60" y="141"/>
      <point x="187" y="-15"/>
      <point x="292" y="-15" type="qcurve" smooth="yes"/>
      <point x="398" y="-15"/>
      <point x="525" y="138"/>
      <point x="525" y="297" type="qcurve" smooth="yes"/>
      <point x="525" y="643" type="line" smooth="yes"/>
      <point x="525" y="789"/>
      <point x="409" y="929"/>
      <point x="291" y="929" type="qcurve" smooth="yes"/>
      <point x="177" y="929"/>
      <point x="60" y="790"/>
      <point x="60" y="644" type="qcurve" smooth="yes"/>
    </contour>
    <contour>
      <point x="57" y="647" type="line" smooth="yes"/>
      <point x="57" y="788"/>
      <point x="180" y="921"/>
      <point x="292" y="921" type="qcurve" smooth="yes"/>
      <point x="407" y="921"/>
      <point x="530" y="788"/>
      <point x="530" y="647" type="qcurve" smooth="yes"/>
      <point x="530" y="284" type="line" smooth="yes"/>
      <point x="530" y="135"/>
      <point x="396" y="-9"/>
      <point x="293" y="-9" type="qcurve" smooth="yes"/>
      <point x="191" y="-9"/>
      <point x="57" y="136"/>
      <point x="57" y="284" type="qcurve" smooth="yes"/>
    </contour>
  </outline>
</glyph>
<glyph name="p" format="2">
  <advance width="576"/>
  <unicode hex="0070"/>
  <outline>
    <contour>
      <point x="83" y="-416" type="line"/>
      <point x="80" y="-416" type="line"/>
      <point x="80" y="100" type="line"/>
      <point x="102" y="56"/>
      <point x="214" y="-15"/>
      <point x="296" y="-15" type="qcurve" smooth="yes"/>
      <point x="399" y="-15"/>
      <point x="516" y="129"/>
      <point x="516" y="260" type="qcurve" smooth="yes"/>
      <point x="516" y="673" type="line" smooth="yes"/>
      <point x="516" y="805"/>
      <point x="394" y="929"/>
      <point x="297" y="929" type="qcurve" smooth="yes"/>
      <point x="197" y="929"/>
      <point x="95" y="834"/>
      <point x="82" y="796" type="qcurve"/>
      <point x="81" y="796" type="line"/>
      <point x="81" y="914" type="line"/>
      <point x="83" y="914" type="line"/>
    </contour>
    <contour>
      <point x="80" y="92" type="qcurve"/>
      <point x="80" y="795" type="line"/>
      <point x="101" y="841"/>
      <point x="224" y="918"/>
      <point x="301" y="918" type="qcurve" smooth="yes"/>
      <point x="387" y="918"/>
      <point x="520" y="798"/>
      <point x="520" y="660" type="qcurve" smooth="yes"/>
      <point x="520" y="266" type="line" smooth="yes"/>
      <point x="520" y="112"/>
      <point x="385" y="-7"/>
      <point x="294" y="-7" type="qcurve" smooth="yes"/>
      <point x="210" y="-7"/>
      <point x="105" y="52"/>
    </contour>
  </outline>
</glyph>
<glyph name="q" format="2">
  <advance width="576"/>
  <unicode hex="0071"/>
  <outline>
    <contour>
      <point x="60" y="271" type="line" smooth="yes"/>
      <point x="60" y="127"/>
      <point x="178" y="-5"/>
      <point x="281" y="-5" type="qcurve" smooth="yes"/>
      <point x="365" y="-5"/>
      <point x="480" y="72"/>
      <point x="495" y="116" type="qcurve"/>
      <point x="496" y="116" type="line"/>
      <point x="496" y="-416" type="line"/>
      <point x="493" y="-416" type="line"/>
      <point x="493" y="914" type="line"/>
      <point x="495" y="914" type="line"/>
      <point x="495" y="789" type="line"/>
      <point x="497" y="789" type="line"/>
      <point x="485" y="827"/>
      <point x="359" y="928"/>
      <point x="272" y="928" type="qcurve" smooth="yes"/>
      <point x="172" y="928"/>
      <point x="60" y="820"/>
      <point x="60" y="678" type="qcurve" smooth="yes"/>
    </contour>
    <contour>
      <point x="57" y="271" type="qcurve" smooth="yes"/>
      <point x="57" y="665" type="line" smooth="yes"/>
      <point x="57" y="804"/>
      <point x="189" y="920"/>
      <point x="274" y="920" type="qcurve" smooth="yes"/>
      <point x="351" y="920"/>
      <point x="475" y="831"/>
      <point x="497" y="785" type="qcurve"/>
      <point x="497" y="102" type="line"/>
      <point x="470" y="62"/>
      <point x="365" y="1"/>
      <point x="281" y="1" type="qcurve" smooth="yes"/>
      <point x="191" y="1"/>
      <point x="57" y="126"/>
    </contour>
  </outline>
</glyph>
<glyph name="r" format="2">
  <advance width="430"/>
  <unicode hex="0072"/>
  <outline>
    <contour>
      <point x="83" y="0" type="line"/>
      <point x="81" y="10" type="line"/>
      <point x="81" y="776" type="line"/>
      <point x="115" y="842"/>
      <point x="243" y="919"/>
      <point x="315" y="919" type="qcurve" smooth="yes"/>
      <point x="341" y="919"/>
      <point x="386" y="909"/>
      <point x="398" y="905" type="qcurve"/>
      <point x="400" y="913" type="line"/>
      <point x="391" y="918"/>
      <point x="343" y="929"/>
      <point x="312" y="929" type="qcurve" smooth="yes"/>
      <point x="239" y="929"/>
      <point x="110" y="826"/>
      <point x="81" y="758" type="qcurve"/>
      <point x="80" y="758" type="line"/>
      <point x="80" y="914" type="line"/>
      <point x="83" y="914" type="line"/>
    </contour>
  </outline>
</glyph>
<glyph name="s" format="2">
  <advance width="481"/>
  <unicode hex="0073"/>
  <outline>
    <contour>
      <point x="38" y="278" type="line"/>
      <point x="38" y="206" type="line" smooth="yes"/>
      <point x="38" y="86"/>
      <point x="142" y="-16"/>
      <point x="239" y="-16" type="qcurve" smooth="yes"/>
      <point x="341" y="-16"/>
      <point x="433" y="94"/>
      <point x="433" y="206" type="qcurve" smooth="yes"/>
      <point x="433" y="322"/>
      <point x="341" y="427"/>
      <point x="224" y="486" type="qcurve" smooth="yes"/>
      <point x="110" y="542"/>
      <point x="47" y="634"/>
      <point x="47" y="724" type="qcurve" smooth="yes"/>
      <point x="47" y="820"/>
      <point x="148" y="917"/>
      <point x="233" y="917" type="qcurve" smooth="yes"/>
      <point x="323" y="917"/>
      <point x="422" y="820"/>
      <point x="422" y="702" type="qcurve" smooth="yes"/>
      <point x="422" y="655" type="line"/>
      <point x="420" y="655" type="line"/>
      <point x="420" y="728" type="line"/>
      <point x="413" y="839"/>
      <point x="324" y="930"/>
      <point x="234" y="930" type="qcurve" smooth="yes"/>
      <point x="151" y="930"/>
      <point x="50" y="830"/>
      <point x="50" y="720" type="qcurve" smooth="yes"/>
      <point x="50" y="628"/>
      <point x="121" y="545"/>
      <point x="241" y="484" type="qcurve" smooth="yes"/>
      <point x="349" y="431"/>
      <point x="438" y="320"/>
      <point x="438" y="207" type="qcurve" smooth="yes"/>
      <point x="438" y="97"/>
      <point x="348" y="-7"/>
      <point x="242" y="-6" type="qcurve" smooth="yes"/>
      <point x="139" y="-5"/>
      <point x="38" y="101"/>
      <point x="38" y="226" type="qcurve" smooth="yes"/>
      <point x="38" y="278" type="line"/>
    </contour>
  </outline>
</glyph>
<glyph name="t" format="2">
  <advance width="273"/>
  <unicode hex="0074"/>
  <outline>
    <contour>
      <point x="11" y="910" type="line"/>
      <point x="272" y="910" type="line"/>
      <point x="272" y="914" type="line"/>
      <point x="11" y="914" type="line"/>
    </contour>
    <contour>
      <point x="84" y="150" type="line" smooth="yes"/>
      <point x="84" y="61"/>
      <point x="155" y="-13"/>
      <point x="209" y="-13" type="qcurve" smooth="yes"/>
      <point x="246" y="-13"/>
      <point x="285" y="-9"/>
      <point x="290" y="-6" type="qcurve"/>
      <point x="290" y="2" type="line"/>
      <point x="290" y="2"/>
      <point x="251" y="-7"/>
      <point x="214" y="-7" type="qcurve" smooth="yes"/>
      <point x="165" y="-7"/>
      <point x="82" y="81"/>
      <point x="82" y="162" type="qcurve" smooth="yes"/>
      <point x="82" y="1222" type="line"/>
      <point x="84" y="1222" type="line"/>
      <point x="84" y="911" type="line"/>
      <point x="84" y="906" type="line"/>
    </contour>
  </outline>
</glyph>
<glyph name="u" format="2">
  <advance width="571"/>
  <unicode hex="0075"/>
  <outline>
    <contour>
      <point x="82" y="150" type="line" smooth="yes"/>
      <point x="82" y="77"/>
      <point x="170" y="-15"/>
      <point x="265" y="-15" type="qcurve" smooth="yes"/>
      <point x="364" y="-15"/>
      <point x="496" y="81"/>
      <point x="506" y="124" type="qcurve"/>
      <point x="507" y="124" type="line"/>
      <point x="504" y="0" type="line"/>
      <point x="503" y="0" type="line"/>
      <point x="503" y="914" type="line"/>
      <point x="507" y="914" type="line"/>
      <point x="507" y="101" type="line"/>
      <point x="479" y="58"/>
      <point x="345" y="-11"/>
      <point x="255" y="-11" type="qcurve" smooth="yes"/>
      <point x="170" y="-11"/>
      <point x="80" y="79"/>
      <point x="80" y="177" type="qcurve" smooth="yes"/>
      <point x="80" y="914" type="line"/>
      <point x="82" y="914" type="line"/>
    </contour>
  </outline>
</glyph>
<glyph name="v" format="2">
  <advance width="420"/>
  <unicode hex="0076"/>
  <outline>
    <contour>
      <point x="18" y="914" type="line"/>
      <point x="214" y="0" type="line"/>
      <point x="202" y="0" type="line"/>
      <point x="402" y="914" type="line"/>
      <point x="407" y="914" type="line"/>
      <point x="267" y="338" type="line" smooth="yes"/>
      <point x="256" y="287"/>
      <point x="204" y="113"/>
      <point x="202" y="84" type="qcurve"/>
      <point x="205" y="84" type="line"/>
      <point x="203" y="113"/>
      <point x="152" y="289"/>
      <point x="141" y="340" type="qcurve" smooth="yes"/>
      <point x="5" y="914" type="line"/>
    </contour>
  </outline>
</glyph>
<glyph name="w" format="2">
  <advance width="701"/>
  <unicode hex="0077"/>
  <outline>
    <contour>
      <point x="24" y="914" type="line"/>
      <point x="218" y="0" type="line"/>
      <point x="171" y="0" type="line"/>
      <point x="334" y="750" type="line" smooth="yes"/>
      <point x="338" y="768"/>
      <point x="344" y="787"/>
      <point x="349" y="805" type="qcurve"/>
      <point x="349" y="805" type="line"/>
      <point x="355" y="788"/>
      <point x="360" y="770"/>
      <point x="364" y="750" type="qcurve" smooth="yes"/>
      <point x="520" y="0" type="line"/>
      <point x="476" y="0" type="line"/>
      <point x="677" y="914" type="line"/>
      <point x="684" y="914" type="line"/>
      <point x="512" y="213" type="line" smooth="yes"/>
      <point x="504" y="181"/>
      <point x="501" y="146"/>
      <point x="499" y="118" type="qcurve"/>
      <point x="500" y="118" type="line"/>
      <point x="497" y="146"/>
      <point x="492" y="181"/>
      <point x="487" y="213" type="qcurve" smooth="yes"/>
      <point x="347" y="914" type="line"/>
      <point x="358" y="914" type="line"/>
      <point x="206" y="207" type="line" smooth="yes"/>
      <point x="200" y="176"/>
      <point x="191" y="140"/>
      <point x="187" y="111" type="qcurve"/>
      <point x="189" y="111" type="line"/>
      <point x="184" y="140"/>
      <point x="174" y="177"/>
      <point x="167" y="208" type="qcurve" smooth="yes"/>
      <point x="13" y="914" type="line"/>
    </contour>
  </outline>
</glyph>
<glyph name="x" format="2">
  <advance width="420"/>
  <unicode hex="0078"/>
  <outline>
    <contour>
      <point x="4" y="0" type="line"/>
      <point x="5" y="0" type="line"/>
      <point x="223" y="458" type="line"/>
      <point x="209" y="468" type="line"/>
      <point x="404" y="914" type="line"/>
      <point x="406" y="914" type="line"/>
      <point x="209" y="496" type="line"/>
      <point x="224" y="494" type="line"/>
    </contour>
    <contour>
      <point x="23" y="914" type="line"/>
      <point x="216" y="466" type="line"/>
      <point x="215" y="452" type="line"/>
      <point x="432" y="0" type="line"/>
      <point x="416" y="0" type="line"/>
      <point x="196" y="497" type="line"/>
      <point x="203" y="501" type="line"/>
      <point x="6" y="914" type="line"/>
    </contour>
  </outline>
</glyph>
<glyph name="y" format="2">
  <advance width="455"/>
  <unicode hex="0079"/>
  <outline>
    <contour>
      <point x="-110" y="-408" type="line"/>
      <point x="-99" y="-409"/>
      <point x="-54" y="-422"/>
      <point x="-22" y="-422" type="qcurve" smooth="yes"/>
      <point x="28" y="-422"/>
      <point x="157" y="-244"/>
      <point x="186" y="-112" type="qcurve" smooth="yes"/>
      <point x="393" y="914" type="line"/>
      <point x="399" y="914" type="line"/>
      <point x="258" y="307" type="line" smooth="yes"/>
      <point x="252" y="281"/>
      <point x="210" y="155"/>
      <point x="204" y="132" type="qcurve"/>
      <point x="203" y="132" type="line"/>
      <point x="198" y="158"/>
      <point x="158" y="285"/>
      <point x="151" y="308" type="qcurve"/>
      <point x="3" y="914" type="line"/>
      <point x="20" y="914" type="line"/>
      <point x="214" y="0" type="line"/>
      <point x="177" y="-119" type="line"/>
      <point x="159" y="-218"/>
      <point x="41" y="-412"/>
      <point x="-22" y="-412" type="qcurve" smooth="yes"/>
      <point x="-48" y="-412"/>
      <point x="-101" y="-395"/>
      <point x="-110" y="-394" type="qcurve"/>
    </contour>
  </outline>
</glyph>
<glyph name="z" format="2">
  <advance width="361"/>
  <unicode hex="007A"/>
  <outline>
    <contour>
      <point x="10" y="0" type="line"/>
      <point x="351" y="0" type="line"/>
      <point x="351" y="10" type="line"/>
      <point x="-18" y="10" type="line"/>
      <point x="353" y="903" type="line"/>
      <point x="353" y="914" type="line"/>
      <point x="19" y="914" type="line"/>
      <point x="19" y="904" type="line"/>
      <point x="382" y="904" type="line"/>
      <point x="10" y="11" type="line"/>
    </contour>
  </outline>
</glyph>
<glyph name="ring" format="2">
  <advance width="1041"/>
  <unicode hex="02DA"/>
  <outline>
    <contour>
      <point x="333" y="1302" type="qcurve" smooth="yes"/>
      <point x="333" y="1226"/>
      <point x="440" y="1126"/>
      <point x="522" y="1126" type="qcurve" smooth="yes"/>
      <point x="603" y="1126"/>
      <point x="708" y="1226"/>
      <point x="708" y="1302" type="qcurve" smooth="yes"/>
      <point x="708" y="1378"/>
      <point x="603" y="1478"/>
      <point x="522" y="1478" type="qcurve" smooth="yes"/>
      <point x="440" y="1478"/>
      <point x="333" y="1378"/>
    </contour>
    <contour>
      <point x="414" y="1303" type="qcurve" smooth="yes"/>
      <point x="414" y="1352"/>
      <point x="473" y="1414"/>
      <point x="521" y="1414" type="qcurve" smooth="yes"/>
      <point x="569" y="1414"/>
      <point x="627" y="1352"/>
      <point x="627" y="1303" type="qcurve" smooth="yes"/>
      <point x="627" y="1254"/>
      <point x="569" y="1190"/>
      <point x="521" y="1190" type="qcurve" smooth="yes"/>
      <point x="473" y="1190"/>
      <point x="414" y="1254"/>
    </contour>
  </outline>
</glyph>
<glyph name="four.pnum" format="2">
  <advance width="877"/>
  <outline>
    <contour>
      <point x="559" y="0" type="line"/>
      <point x="671" y="0" type="line"/>
      <point x="671" y="1456" type="line"/>
      <point x="566" y="1456" type="line"/>
      <point x="35" y="452" type="line"/>
      <point x="35" y="349" type="line"/>
      <point x="864" y="349" type="line"/>
      <point x="864" y="445" type="line"/>
      <point x="615" y="445" type="line"/>
      <point x="590" y="445" type="line"/>
      <point x="145" y="445" type="line"/>
      <point x="551" y="1220" type="line"/>
      <point x="559" y="1220" type="line"/>
      <point x="559" y="405" type="line"/>
      <point x="559" y="391" type="line"/>
    </contour>
  </outline>
</glyph>
